<svg width="23" height="23" viewBox="0 0 23 23" fill="none" xmlns="http://www.w3.org/2000/svg">
<path d="M20.1299 10.1664V3.88745C20.1299 2.50239 19.539 1.94836 18.0708 1.94836H14.3404C12.8722 1.94836 12.2812 2.50239 12.2812 3.88745V10.1664C12.2812 11.5515 12.8722 12.1055 14.3404 12.1055H18.0708C19.539 12.1055 20.1299 11.5515 20.1299 10.1664Z" fill="white"/>
<path d="M10.4344 12.1978V18.4767C10.4344 19.8618 9.84342 20.4158 8.37525 20.4158H4.64482C3.17665 20.4158 2.58569 19.8618 2.58569 18.4767V12.1978C2.58569 10.8127 3.17665 10.2587 4.64482 10.2587H8.37525C9.84342 10.2587 10.4344 10.8127 10.4344 12.1978Z" fill="white"/>
<path d="M20.1299 18.4767V15.8912C20.1299 14.5062 19.539 13.9521 18.0708 13.9521H14.3404C12.8722 13.9521 12.2812 14.5062 12.2812 15.8912V18.4767C12.2812 19.8617 12.8722 20.4158 14.3404 20.4158H18.0708C19.539 20.4158 20.1299 19.8617 20.1299 18.4767Z" fill="white"/>
<path d="M10.4344 6.4729V3.88745C10.4344 2.50239 9.84342 1.94836 8.37525 1.94836H4.64482C3.17665 1.94836 2.58569 2.50239 2.58569 3.88745V6.4729C2.58569 7.85796 3.17665 8.41199 4.64482 8.41199H8.37525C9.84342 8.41199 10.4344 7.85796 10.4344 6.4729Z" fill="white"/>
</svg>
